<?xml version="1.0" encoding="UTF-8"?>
<svg version="1.1" xmlns="http://www.w3.org/2000/svg" width="1484" height="168">
<path d="M0 0 C3.84029177 2.13264458 7.07297597 4.86292147 10.31201172 7.80908203 C12.48433671 9.71534934 14.85655572 11.23367361 17.28710938 12.79101562 C22.94839663 16.53016822 28.55870828 20.34069169 34.16210938 24.16601562 C35.10763672 24.81143311 36.05316406 25.45685059 37.02734375 26.12182617 C38.97699702 27.45296536 40.9265401 28.78426597 42.87597656 30.11572266 C47.51130431 33.28083827 52.14929345 36.44204759 56.78710938 39.60351562 C58.62045649 40.85349541 60.4537898 42.10349544 62.28710938 43.35351562 C63.19460938 43.97226562 64.10210938 44.59101562 65.03710938 45.22851562 C82.45377604 57.10351562 99.87044271 68.97851563 117.28710938 80.85351562 C118.195979 81.47315186 119.10484863 82.09278809 120.04125977 82.73120117 C121.86093782 83.97198636 123.68043871 85.21303139 125.49975586 86.4543457 C130.29053907 89.72256686 135.08498978 92.9852315 139.88476562 96.24023438 C140.88314453 96.91828125 141.88152344 97.59632812 142.91015625 98.29492188 C144.82048101 99.59216567 146.73188085 100.8878282 148.64453125 102.18164062 C152.81893506 105.01861409 156.91348141 107.85804355 160.78710938 111.10351562 C160.14658749 114.93869017 158.34761408 117.54938268 156.18945312 120.74414062 C155.47080078 121.8140625 154.75214844 122.88398437 154.01171875 123.98632812 C153.24947381 125.10880875 152.4871024 126.23120351 151.72460938 127.35351562 C150.95780329 128.49117938 150.19152125 129.62919654 149.42578125 130.76757812 C147.55135427 133.54974648 145.67163714 136.32818352 143.78710938 139.10351562 C139.70159079 137.65123046 136.41374581 135.6558283 132.84179688 133.20898438 C132.27906067 132.82545303 131.71632446 132.44192169 131.13653564 132.04676819 C129.30859915 130.79935725 127.48535988 129.54526334 125.66210938 128.29101562 C124.39010668 127.42111726 123.11780603 126.55165442 121.84521484 125.68261719 C118.71508067 123.5436398 115.58851822 121.39951206 112.46313477 119.25360107 C110.14094396 117.66011814 107.81575522 116.07103987 105.49023438 114.48242188 C102.46142365 112.41294007 99.43410437 110.34131163 96.40820312 108.26757812 C91.26897838 104.74677101 86.12212753 101.23718237 80.97460938 97.72851562 C80.05719971 97.10315918 79.13979004 96.47780273 78.19458008 95.83349609 C75.39217466 93.92337813 72.58966193 92.01341771 69.78710938 90.10351562 C58.50841624 82.41723708 47.2320683 74.72766936 35.9699707 67.01708984 C31.7760622 64.14644461 27.57997068 61.27904606 23.38085938 58.41601562 C22.00015259 57.47423462 22.00015259 57.47423462 20.59155273 56.51342773 C18.73463241 55.24880793 16.87609063 53.98656548 15.01586914 52.72680664 C10.41526052 49.60634777 5.85272189 46.44783954 1.34570312 43.19335938 C0.05116211 42.27103516 0.05116211 42.27103516 -1.26953125 41.33007812 C-2.90272031 40.16406006 -4.52576783 38.98366349 -6.13671875 37.78710938 C-6.86439453 37.27148438 -7.59207031 36.75585938 -8.34179688 36.22460938 C-8.97158447 35.76497803 -9.60137207 35.30534668 -10.25024414 34.83178711 C-12.27529208 33.86426391 -12.27529208 33.86426391 -14.67895508 34.77075195 C-17.21673223 36.10553618 -19.36605422 37.54545656 -21.62695312 39.30664062 C-22.46033203 39.94988281 -23.29371094 40.593125 -24.15234375 41.25585938 C-25.03857422 41.94808594 -25.92480469 42.6403125 -26.83789062 43.35351562 C-28.73533339 44.8183467 -30.63379099 46.28186408 -32.53320312 47.74414062 C-33.48743164 48.47955078 -34.44166016 49.21496094 -35.42480469 49.97265625 C-39.48030695 53.07216796 -43.59187426 56.09197009 -47.71289062 59.10351562 C-54.43843843 64.02835679 -61.09343873 69.03701432 -67.71289062 74.10351562 C-75.09930854 79.75704957 -82.54483528 85.31821756 -90.04882812 90.81445312 C-96.88517788 95.83383284 -103.62507307 100.97429883 -110.359375 106.12939453 C-117.04741586 111.23962293 -123.80465842 116.24828313 -130.59375 121.22314453 C-136.21526396 125.34884075 -141.75356419 129.56780816 -147.25976562 133.84570312 C-151.16160981 136.82885913 -155.1524073 139.67935975 -159.16601562 142.50976562 C-161.31358564 143.94575659 -161.31358564 143.94575659 -162.21289062 146.10351562 C-175.91831596 147.45851827 -185.37314546 147.16150241 -196.24804688 138.35742188 C-196.89016113 137.82133301 -197.53227539 137.28524414 -198.19384766 136.73291016 C-201.74263365 133.86899266 -205.55261539 131.39093648 -209.33789062 128.85351562 C-210.94959692 127.75345952 -212.56025554 126.65186706 -214.16992188 125.54882812 C-225.08432912 118.08997228 -236.01008826 110.64773235 -246.93554688 103.20507812 C-255.67212351 97.25245405 -264.40337716 91.29272253 -273.11035156 85.296875 C-281.49904152 79.52410398 -289.91941315 73.79772856 -298.33544922 68.06494141 C-301.21910777 66.09927767 -304.1010182 64.13107669 -306.98242188 62.16210938 C-317.35107638 55.07910873 -327.7422508 48.03501395 -338.21289062 41.10351562 C-343.75775664 44.07916362 -348.55228683 47.55721964 -353.46289062 51.47851562 C-359.7379846 56.42574969 -366.07339583 61.26429772 -372.52539062 65.97851562 C-380.28076694 71.65173415 -387.94229281 77.43846603 -395.57617188 83.27392578 C-402.7830803 88.78217767 -410.02812136 94.23712568 -417.29345703 99.66796875 C-420.60262352 102.14289866 -423.90748885 104.6235614 -427.21289062 107.10351562 C-428.54620444 108.10354165 -429.87953775 109.10354168 -431.21289062 110.10351562 C-431.87289062 110.59851563 -432.53289063 111.09351562 -433.21289062 111.60351562 C-435.21289063 113.10351563 -437.21289062 114.60351562 -439.21289062 116.10351562 C-440.20252808 116.84577393 -440.20252808 116.84577393 -441.2121582 117.60302734 C-442.54785485 118.60475908 -443.88362982 119.6063864 -445.21948242 120.60791016 C-448.51730158 123.08057184 -451.81381756 125.55492936 -455.10742188 128.03320312 C-455.75316162 128.51861572 -456.39890137 129.00402832 -457.06420898 129.50415039 C-458.36635647 130.48307093 -459.66795646 131.46272018 -460.96899414 132.44311523 C-464.7554467 135.28842372 -468.56842839 138.09222041 -472.40820312 140.86523438 C-473.71567505 141.81390381 -473.71567505 141.81390381 -475.04956055 142.78173828 C-476.75614298 144.01814148 -478.46712049 145.2485055 -480.18286133 146.47216797 C-480.95460693 147.03242676 -481.72635254 147.59268555 -482.52148438 148.16992188 C-483.21040771 148.66435791 -483.89933105 149.15879395 -484.60913086 149.66821289 C-486.49219046 151.11469719 -486.49219046 151.11469719 -487.21289062 154.10351562 C-494.47289062 154.10351562 -501.73289062 154.10351562 -509.21289062 154.10351562 C-509.21289062 153.44351563 -509.21289062 152.78351563 -509.21289062 152.10351562 C-509.94846191 151.83345703 -510.6840332 151.56339844 -511.44189453 151.28515625 C-514.110507 150.14717525 -516.19618761 148.88036952 -518.54882812 147.19726562 C-519.35779541 146.62355225 -520.1667627 146.04983887 -521.00024414 145.45874023 C-521.85416748 144.84651611 -522.70809082 144.23429199 -523.58789062 143.60351562 C-525.39555877 142.32226082 -527.20415933 141.04232052 -529.01367188 139.76367188 C-529.90135254 139.13605957 -530.7890332 138.50844727 -531.70361328 137.86181641 C-535.02580734 135.53388864 -538.38971986 133.27523121 -541.77539062 131.04101562 C-549.79020842 125.74242121 -557.7079221 120.3055373 -565.63134766 114.87158203 C-570.15329704 111.77455561 -574.68342694 108.6895369 -579.21289062 105.60351562 C-586.82412562 100.41659502 -594.42930039 95.2209484 -602.02929688 90.01757812 C-608.08552163 85.872249 -614.14831092 81.73660979 -620.21289062 77.60351562 C-634.5761275 67.81342876 -648.93773765 58.02179965 -663.21289062 48.10351562 C-668.75775664 51.07916362 -673.55228683 54.55721964 -678.46289062 58.47851562 C-684.73798107 63.4257469 -691.07333599 68.26438362 -697.52539062 72.97851562 C-704.31469625 77.9438078 -711.03437617 82.99017254 -717.71289062 88.10351562 C-725.09921071 93.75717524 -732.54483795 99.31821952 -740.04882812 104.81445312 C-746.88517788 109.83383284 -753.62507307 114.97429883 -760.359375 120.12939453 C-767.04823699 125.24025035 -773.80682791 130.24878725 -780.59594727 135.2253418 C-784.60764784 138.17036704 -788.60153136 141.13277394 -792.54052734 144.17456055 C-794.11153338 145.38605064 -795.69528552 146.5809551 -797.27929688 147.77539062 C-800.24819365 150.05167864 -800.24819365 150.05167864 -802.86523438 152.68164062 C-810.50474773 159.65255955 -818.68508159 161.59921389 -828.92773438 161.27539062 C-840.06551068 159.93000441 -848.77693133 152.04506453 -857.32666016 145.33789062 C-861.3921757 142.19057222 -865.62875399 139.33563406 -869.90039062 136.47851562 C-871.43027983 135.43345851 -872.9589213 134.38657253 -874.48632812 133.33789062 C-879.66149903 129.79480519 -884.84304951 126.26110233 -890.02539062 122.72851562 C-891.40114258 121.79072266 -891.40114258 121.79072266 -892.8046875 120.83398438 C-895.60734048 118.92370866 -898.41009562 117.01358294 -901.21289062 115.10351562 C-912.49376643 107.41574962 -923.77207661 99.72437548 -935.03662109 92.01269531 C-941.94243544 87.28607462 -948.85211173 82.56508458 -955.77319336 77.86083984 C-960.64095201 74.55040329 -965.49226641 71.21885519 -970.32226562 67.85351562 C-971.31895264 67.16306152 -972.31563965 66.47260742 -973.3425293 65.76123047 C-975.25619368 64.43490318 -977.16544187 63.10217462 -979.06958008 61.76220703 C-980.36448364 60.86767822 -980.36448364 60.86767822 -981.68554688 59.95507812 C-982.44101807 59.42736816 -983.19648926 58.8996582 -983.97485352 58.35595703 C-986.48713875 56.95004198 -988.33722652 56.29965522 -991.21289062 56.10351562 C-993.21330449 57.00198437 -993.21330449 57.00198437 -994.97070312 58.57617188 C-995.66848877 59.13868652 -996.36627441 59.70120117 -997.08520508 60.28076172 C-997.82859131 60.90289551 -998.57197754 61.5250293 -999.33789062 62.16601562 C-1000.95713104 63.47430237 -1002.57828427 64.7802246 -1004.20117188 66.08398438 C-1005.03213379 66.75606934 -1005.8630957 67.4281543 -1006.71923828 68.12060547 C-1010.57343293 71.18539584 -1014.54365194 74.08259182 -1018.52539062 76.97851562 C-1025.315858 81.94218063 -1032.03441549 86.99020265 -1038.71289062 92.10351562 C-1046.09921071 97.75717524 -1053.54483795 103.31821952 -1061.04882812 108.81445312 C-1066.98960496 113.17628595 -1072.86042323 117.62406111 -1078.71289062 122.10351562 C-1085.33236496 127.1700341 -1091.988027 132.17771836 -1098.71289062 137.10351562 C-1107.35672657 143.43728231 -1115.89448493 149.90476625 -1124.40820312 156.41210938 C-1125.61778687 157.32391968 -1125.61778687 157.32391968 -1126.85180664 158.25415039 C-1128.42233659 159.48429871 -1129.95088846 160.77004454 -1131.43139648 162.10717773 C-1137.33945176 167.29918487 -1141.76362595 168.12074669 -1149.52539062 167.79101562 C-1150.50056641 167.79294922 -1151.47574219 167.79488281 -1152.48046875 167.796875 C-1159.60930112 167.65498335 -1159.60930112 167.65498335 -1162.20043945 165.28759766 C-1162.86454834 164.56685059 -1163.52865723 163.84610352 -1164.21289062 163.10351562 C-1165.87949629 161.86975272 -1167.57787113 160.67822651 -1169.29882812 159.52148438 C-1170.80159302 158.50610596 -1170.80159302 158.50610596 -1172.3347168 157.47021484 C-1173.40826416 156.7510791 -1174.48181152 156.03194336 -1175.58789062 155.29101562 C-1176.71492422 154.53124302 -1177.84162867 153.77098196 -1178.96801758 153.01025391 C-1181.27031889 151.45578151 -1183.57390182 149.90323754 -1185.87841797 148.35205078 C-1190.7332086 145.08161478 -1195.56664489 141.77994243 -1200.40039062 138.47851562 C-1202.20240171 137.24924305 -1204.00448501 136.02007631 -1205.80664062 134.79101562 C-1207.13888672 133.88222656 -1207.13888672 133.88222656 -1208.49804688 132.95507812 C-1211.26718785 131.06648414 -1214.0368393 129.178641 -1216.80664062 127.29101562 C-1226.22046334 120.87514726 -1235.62983952 114.45291675 -1245.0300293 108.01708984 C-1251.08599609 103.87190351 -1257.14852066 99.73639641 -1263.21289062 95.60351562 C-1270.81616534 90.42186805 -1278.41480781 85.23356853 -1286.00512695 80.03295898 C-1290.33245208 77.06933072 -1294.66589921 74.11502271 -1299.00585938 71.16992188 C-1300.47732422 70.17025391 -1300.47732422 70.17025391 -1301.97851562 69.15039062 C-1303.86935601 67.86623699 -1305.76121694 66.5835842 -1307.65429688 65.30273438 C-1312.94924332 61.70468471 -1318.13307701 57.99985692 -1323.21289062 54.10351562 C-1322.57236874 50.26834108 -1320.77339533 47.65764857 -1318.61523438 44.46289062 C-1317.89658203 43.39296875 -1317.17792969 42.32304688 -1316.4375 41.22070312 C-1315.67525506 40.0982225 -1314.91288365 38.97582774 -1314.15039062 37.85351562 C-1313.38358454 36.71585187 -1312.6173025 35.57783471 -1311.8515625 34.43945312 C-1309.97713552 31.65728477 -1308.09741839 28.87884773 -1306.21289062 26.10351562 C-1302.43813137 27.47816101 -1299.30130077 29.21400209 -1295.96679688 31.44726562 C-1294.4735791 32.4440332 -1294.4735791 32.4440332 -1292.95019531 33.4609375 C-1291.90250977 34.16798828 -1290.85482422 34.87503906 -1289.77539062 35.60351562 C-1288.69805664 36.32603516 -1287.62072266 37.04855469 -1286.51074219 37.79296875 C-1280.20415105 42.03782618 -1273.95697567 46.35049706 -1267.79907227 50.80786133 C-1263.53073685 53.89607779 -1259.1748475 56.82546222 -1254.77929688 59.72851562 C-1250.03916442 62.87089774 -1245.34771867 66.0851779 -1240.65039062 69.29101562 C-1239.69712891 69.94158936 -1238.74386719 70.59216309 -1237.76171875 71.26245117 C-1230.96841359 75.90106927 -1224.17933969 80.54586765 -1217.39160156 85.19262695 C-1211.39891559 89.29436239 -1205.40078134 93.38806079 -1199.40039062 97.47851562 C-1198.02826416 98.4138916 -1198.02826416 98.4138916 -1196.62841797 99.36816406 C-1191.9161655 102.58012518 -1187.20335932 105.79127241 -1182.49023438 109.00195312 C-1181.55211914 109.64156982 -1180.61400391 110.28118652 -1179.64746094 110.94018555 C-1177.79294312 112.20312056 -1175.93685258 113.46374962 -1174.07910156 114.72192383 C-1169.82381139 117.60922214 -1165.60290888 120.52581446 -1161.45117188 123.56054688 C-1160.7201123 124.08745117 -1159.98905273 124.61435547 -1159.23583984 125.15722656 C-1157.8864435 126.13349318 -1156.54734077 127.12421752 -1155.22119141 128.13183594 C-1151.8228923 130.61130576 -1151.8228923 130.61130576 -1147.76757812 130.74804688 C-1144.15682732 128.42369506 -1140.7728317 125.88463499 -1137.40039062 123.22851562 C-1135.88009648 122.04813335 -1134.35924987 120.86846232 -1132.83789062 119.68945312 C-1132.06832031 119.09100586 -1131.29875 118.49255859 -1130.50585938 117.87597656 C-1126.99838259 115.16470298 -1123.45173636 112.50691877 -1119.90039062 109.85351562 C-1119.23120605 109.35255371 -1118.56202148 108.8515918 -1117.87255859 108.33544922 C-1115.0109307 106.19363894 -1112.1472913 104.0545348 -1109.28320312 101.91601562 C-1104.66196055 98.4599022 -1100.05530595 94.98697213 -1095.47070312 91.48242188 C-1086.16558373 84.36945331 -1076.82759873 77.31471747 -1067.37866211 70.39379883 C-1061.4372775 66.03160577 -1055.56597599 61.58331728 -1049.71289062 57.10351562 C-1042.30461244 51.43468458 -1034.87743191 45.79501619 -1027.30004883 40.35302734 C-1023.15309308 37.35888829 -1019.20086272 34.26944834 -1015.35351562 30.89648438 C-1005.32660665 22.33255521 -998.43725911 18.55289033 -985.01831055 19.33837891 C-982.73829716 19.53947761 -980.47932314 19.78656616 -978.21289062 20.10351562 C-978.21289062 20.76351563 -978.21289062 21.42351563 -978.21289062 22.10351562 C-977.56964844 22.3071875 -976.92640625 22.51085937 -976.26367188 22.72070312 C-971.91881799 24.69007352 -968.26401754 27.45004905 -964.40039062 30.22851562 C-956.69653408 35.70029334 -948.90648647 41.01541746 -941.02539062 46.22851562 C-933.21809854 51.39944216 -925.49612798 56.66198729 -917.86914062 62.0949707 C-913.19549715 65.42198079 -908.46162698 68.63756916 -903.67382812 71.79882812 C-891.14953815 80.09989998 -878.812742 88.69083332 -866.41357422 97.17724609 C-845.88996709 111.25404842 -845.88996709 111.25404842 -825.21289062 125.10351562 C-819.18720945 121.20237471 -813.45841015 117.06497444 -807.83789062 112.60351562 C-801.60186334 107.70252333 -795.30299033 102.90975627 -788.90039062 98.22851562 C-782.1112616 93.2629766 -775.39141091 88.21686317 -768.71289062 83.10351562 C-761.32657054 77.44985601 -753.8809433 71.88881173 -746.37695312 66.39257812 C-740.43617629 62.0307453 -734.56535802 57.58297014 -728.71289062 53.10351562 C-721.3381215 47.45889761 -713.9052402 41.9052147 -706.41210938 36.41894531 C-699.19688684 31.12272944 -692.07974078 25.70112238 -684.9765625 20.25585938 C-684.13673828 19.61261719 -683.29691406 18.969375 -682.43164062 18.30664062 C-681.68849609 17.7359082 -680.94535156 17.16517578 -680.1796875 16.57714844 C-674.86387663 12.59424943 -671.19004941 12.60703068 -664.71289062 12.47851562 C-663.76929688 12.42050781 -662.82570313 12.3625 -661.85351562 12.30273438 C-653.14615218 12.14809541 -648.78142315 15.79576778 -642.21289062 21.10351562 C-640.04761021 22.62080697 -637.87815064 24.11406492 -635.68164062 25.58398438 C-634.53997405 26.35606613 -633.39845593 27.12836744 -632.25708008 27.90087891 C-631.38969711 28.48582123 -631.38969711 28.48582123 -630.50479126 29.08258057 C-628.03211939 30.75011911 -625.56232184 32.42189376 -623.09236145 34.09344482 C-621.85339156 34.93190167 -620.61428766 35.77016054 -619.37504578 36.60821533 C-614.41331897 39.96442417 -609.46552806 43.34060419 -604.52539062 46.72851562 C-597.26638637 51.70431725 -589.99210381 56.65732747 -582.71289062 61.60351562 C-574.54944291 67.15091582 -566.39351805 72.70893967 -558.25073242 78.28662109 C-552.18184289 82.44307537 -546.10441437 86.58690062 -540.02539062 90.72851562 C-526.71629238 99.79838539 -513.44753555 108.92538002 -500.21289062 118.10351562 C-493.57362151 113.96106566 -487.40350142 109.24938426 -481.21142578 104.47998047 C-475.55573945 100.12447995 -469.86500501 95.81889099 -464.15039062 91.54101562 C-463.30726318 90.90969727 -462.46413574 90.27837891 -461.59545898 89.62792969 C-459.92693505 88.37899495 -458.25823732 87.13029236 -456.58935547 85.88183594 C-453.04496031 83.22954764 -449.50392947 80.57278216 -445.96289062 77.91601562 C-444.67124342 76.94723968 -443.37957689 75.97848949 -442.08789062 75.00976562 C-441.45367188 74.53410156 -440.81945312 74.0584375 -440.16601562 73.56835938 C-416.21289062 55.60351562 -416.21289062 55.60351562 -413.31054688 53.42773438 C-411.06712204 51.74445849 -408.82499958 50.05952366 -406.58398438 48.37304688 C-399.42769393 42.99161752 -392.24468643 37.65015959 -385.02539062 32.35351562 C-375.35497329 25.25427278 -365.81493876 17.98764881 -356.29321289 10.69067383 C-355.60670654 10.16691162 -354.9202002 9.64314941 -354.21289062 9.10351562 C-353.55305176 8.55880615 -352.89321289 8.01409668 -352.21337891 7.45288086 C-346.56224144 3.64108726 -337.87947172 4.51126724 -331.40820312 5.30712891 C-321.80553528 7.70045887 -313.78442944 14.95282414 -306.10205078 20.89404297 C-302.08284395 23.9677139 -297.91386386 26.78671211 -293.71289062 29.60351562 C-292.19103786 30.64369236 -290.67022454 31.6853913 -289.15039062 32.72851562 C-283.34654235 36.69956971 -277.52941615 40.65106452 -271.71289062 44.60351562 C-263.54726933 50.15241666 -255.38930587 55.71213532 -247.24414062 61.29101562 C-241.23929009 65.40336642 -235.22717555 69.50497682 -229.21289062 73.60351562 C-223.14697947 77.73742327 -217.08263627 81.87355356 -211.02563477 86.02050781 C-209.49409663 87.06880226 -207.96203955 88.11633896 -206.42944336 89.16308594 C-202.03566783 92.16488891 -197.65313171 95.18209113 -193.27929688 98.21289062 C-191.2780156 99.59312913 -189.27671387 100.97333798 -187.27539062 102.35351562 C-186.33308594 103.01029297 -185.39078125 103.66707031 -184.41992188 104.34375 C-183.53820313 104.95025391 -182.65648437 105.55675781 -181.74804688 106.18164062 C-180.96824463 106.72208008 -180.18844238 107.26251953 -179.38500977 107.81933594 C-177.21339887 109.10321515 -175.7261082 109.88848265 -173.21289062 110.10351562 C-171.25745876 109.21610451 -171.25745876 109.21610451 -169.40429688 107.70117188 C-168.30021484 106.87262695 -168.30021484 106.87262695 -167.17382812 106.02734375 C-165.98660156 105.10598633 -165.98660156 105.10598633 -164.77539062 104.16601562 C-163.52435547 103.21952148 -163.52435547 103.21952148 -162.24804688 102.25390625 C-159.56012768 100.21596752 -156.88617987 98.16059557 -154.21289062 96.10351562 C-152.46236952 94.76785603 -150.71107366 93.4332112 -148.95898438 92.09960938 C-146.32179787 90.09167046 -143.68554583 88.08259604 -141.05297852 86.06860352 C-134.55039242 81.09814999 -127.97973534 76.22872964 -121.37695312 71.39257812 C-114.53764985 66.37102988 -107.79499391 61.22814875 -101.05761719 56.07104492 C-94.45958706 51.02983281 -87.79360841 46.08901678 -81.09570312 41.18164062 C-75.21554472 36.86493571 -69.41498469 32.45315382 -63.63476562 28.00390625 C-57.49676431 23.29161606 -51.29460886 18.66744242 -45.00878906 14.15380859 C-41.46152061 11.59157035 -38.06198984 9.06235912 -34.93164062 5.99804688 C-25.74785309 -2.77584364 -11.9385056 -4.83651727 0 0 Z " fill="#000000" transform="translate(1323.212890625,0.896484375)"/>
<path d="M0 0 C0.66 0 1.32 0 2 0 C3.36680153 2.26404542 4.71844445 4.53501021 6.0625 6.8125 C6.45244141 7.45509766 6.84238281 8.09769531 7.24414062 8.75976562 C8.24130759 10.4628915 9.12812687 12.22945858 10 14 C9.67 14.99 9.34 15.98 9 17 C3.39 17 -2.22 17 -8 17 C-7.06315768 12.31578842 -5.93628749 9.72935437 -3.5625 5.6875 C-2.94503906 4.61886719 -2.32757813 3.55023438 -1.69140625 2.44921875 C-0.85416016 1.23685547 -0.85416016 1.23685547 0 0 Z " fill="#1B1B1B" transform="translate(499,142)"/>
</svg>
